<?xml version="1.0" encoding="UTF-8" standalone="no"?>
<!DOCTYPE svg PUBLIC "-//W3C//DTD SVG 1.1//EN"
 "http://www.w3.org/Graphics/SVG/1.1/DTD/svg11.dtd">
<!-- Generated by graphviz version 2.42.4 (0)
 -->
<!-- Title: ExtendedTPN_Paper Pages: 1 -->
<svg width="614pt" height="1306pt"
 viewBox="0.00 0.00 614.00 1306.00" xmlns="http://www.w3.org/2000/svg" xmlns:xlink="http://www.w3.org/1999/xlink">
<g id="graph0" class="graph" transform="scale(1 1) rotate(0) translate(4 1302)">
<title>ExtendedTPN_Paper</title>
<polygon fill="white" stroke="transparent" points="-4,4 -4,-1302 610,-1302 610,4 -4,4"/>
<!-- p_Understood -->
<g id="node1" class="node">
<title>p_Understood</title>
<ellipse fill="#ffffff" stroke="#333333" stroke-width="1.5" cx="227.5" cy="-896.5" rx="12.5" ry="12.5"/>
<text text-anchor="middle" x="184" y="-912.4" font-family="Helvetica,Arial,sans-serif" font-size="12.00">Understood</text>
</g>
<!-- t_Topic -->
<g id="node15" class="node">
<title>t_Topic</title>
<polygon fill="#fff3cd" stroke="#856404" points="191.5,-621 81.5,-621 81.5,-592 191.5,-592 191.5,-621"/>
<text text-anchor="middle" x="136.5" y="-603.4" font-family="Helvetica,Arial,sans-serif" font-size="12.00">Topic [0, 4500]ms</text>
</g>
<!-- p_Understood&#45;&gt;t_Topic -->
<g id="edge3" class="edge">
<title>p_Understood&#45;&gt;t_Topic</title>
<path fill="none" stroke="#333333" d="M220.3,-886.04C208.59,-870.18 185.54,-836.83 173.5,-805 150.81,-745.01 141.63,-669.32 138.25,-631.42"/>
<polygon fill="#333333" stroke="#333333" points="141.73,-631.03 137.42,-621.36 134.76,-631.61 141.73,-631.03"/>
</g>
<!-- t_Search -->
<g id="node19" class="node">
<title>t_Search</title>
<polygon fill="#fff3cd" stroke="#856404" points="311,-805 192,-805 192,-776 311,-776 311,-805"/>
<text text-anchor="middle" x="251.5" y="-787.4" font-family="Helvetica,Arial,sans-serif" font-size="12.00">Search [0, 3500]ms</text>
</g>
<!-- p_Understood&#45;&gt;t_Search -->
<g id="edge13" class="edge">
<title>p_Understood&#45;&gt;t_Search</title>
<path fill="none" stroke="#333333" d="M230.16,-883.97C233.98,-867.41 241.11,-836.53 246.07,-815.03"/>
<polygon fill="#333333" stroke="#333333" points="249.54,-815.58 248.37,-805.05 242.71,-814 249.54,-815.58"/>
</g>
<!-- p_Ready -->
<g id="node2" class="node">
<title>p_Ready</title>
<ellipse fill="#ffffff" stroke="#333333" stroke-width="1.5" cx="227.5" cy="-1070.5" rx="12.5" ry="12.5"/>
<text text-anchor="middle" x="197.5" y="-1086.4" font-family="Helvetica,Arial,sans-serif" font-size="12.00">Ready</text>
</g>
<!-- t_Intent -->
<g id="node14" class="node">
<title>t_Intent</title>
<polygon fill="#fff3cd" stroke="#856404" points="282.5,-993 172.5,-993 172.5,-964 282.5,-964 282.5,-993"/>
<text text-anchor="middle" x="227.5" y="-975.4" font-family="Helvetica,Arial,sans-serif" font-size="12.00">Intent [0, 2000]ms</text>
</g>
<!-- p_Ready&#45;&gt;t_Intent -->
<g id="edge2" class="edge">
<title>p_Ready&#45;&gt;t_Intent</title>
<path fill="none" stroke="#6c757d" stroke-dasharray="5,2" d="M227.5,-1057.73C227.5,-1043.92 227.5,-1020.68 227.5,-1003.11"/>
<polygon fill="#6c757d" stroke="#6c757d" points="231,-1003.03 227.5,-993.03 224,-1003.03 231,-1003.03"/>
<text text-anchor="middle" x="237" y="-1023" font-family="Helvetica,Arial,sans-serif" font-size="10.00">read</text>
</g>
<!-- t_Guard -->
<g id="node20" class="node">
<title>t_Guard</title>
<polygon fill="#fff3cd" stroke="#856404" points="131,-993 24,-993 24,-964 131,-964 131,-993"/>
<text text-anchor="middle" x="77.5" y="-975.4" font-family="Helvetica,Arial,sans-serif" font-size="12.00">Guard [0, 500]ms</text>
</g>
<!-- p_Ready&#45;&gt;t_Guard -->
<g id="edge17" class="edge">
<title>p_Ready&#45;&gt;t_Guard</title>
<path fill="none" stroke="#6c757d" stroke-dasharray="5,2" d="M217.19,-1063.31C195.13,-1050.08 142.62,-1018.57 108.63,-998.18"/>
<polygon fill="#6c757d" stroke="#6c757d" points="110.38,-995.14 100,-993 106.78,-1001.15 110.38,-995.14"/>
<text text-anchor="middle" x="171" y="-1023" font-family="Helvetica,Arial,sans-serif" font-size="10.00">read</text>
</g>
<!-- p_Promoted -->
<g id="node3" class="node">
<title>p_Promoted</title>
<ellipse fill="#ffffff" stroke="#333333" stroke-width="1.5" cx="136.5" cy="-524.5" rx="12.5" ry="12.5"/>
<text text-anchor="middle" x="98" y="-540.4" font-family="Helvetica,Arial,sans-serif" font-size="12.00">Promoted</text>
</g>
<!-- t_Compose -->
<g id="node24" class="node">
<title>t_Compose</title>
<polygon fill="#fff3cd" stroke="#856404" points="295,-457 162,-457 162,-428 295,-428 295,-457"/>
<text text-anchor="middle" x="228.5" y="-439.4" font-family="Helvetica,Arial,sans-serif" font-size="12.00">Compose [0, 6000]ms</text>
</g>
<!-- p_Promoted&#45;&gt;t_Compose -->
<g id="edge28" class="edge">
<title>p_Promoted&#45;&gt;t_Compose</title>
<path fill="none" stroke="#333333" d="M145.66,-515.54C159.34,-503.64 185.56,-480.83 204.86,-464.06"/>
<polygon fill="#333333" stroke="#333333" points="207.4,-466.49 212.65,-457.29 202.8,-461.21 207.4,-466.49"/>
</g>
<!-- p_Informed -->
<g id="node4" class="node">
<title>p_Informed</title>
<ellipse fill="#ffffff" stroke="#333333" stroke-width="1.5" cx="197.5" cy="-524.5" rx="12.5" ry="12.5"/>
<text text-anchor="middle" x="161.5" y="-540.4" font-family="Helvetica,Arial,sans-serif" font-size="12.00">Informed</text>
</g>
<!-- p_Informed&#45;&gt;t_Compose -->
<g id="edge27" class="edge">
<title>p_Informed&#45;&gt;t_Compose</title>
<path fill="none" stroke="#333333" d="M201.68,-512.71C206.22,-501 213.61,-481.94 219.48,-466.78"/>
<polygon fill="#333333" stroke="#333333" points="222.9,-467.64 223.25,-457.05 216.37,-465.11 222.9,-467.64"/>
</g>
<!-- p_ComposeFail -->
<g id="node5" class="node">
<title>p_ComposeFail</title>
<ellipse fill="#ffffff" stroke="#333333" stroke-width="1.5" cx="376.5" cy="-350.5" rx="12.5" ry="12.5"/>
<text text-anchor="middle" x="328" y="-366.4" font-family="Helvetica,Arial,sans-serif" font-size="12.00">ComposeFail</text>
</g>
<!-- t_ShowError -->
<g id="node16" class="node">
<title>t_ShowError</title>
<polygon fill="#fff3cd" stroke="#856404" points="606,-273 475,-273 475,-244 606,-244 606,-273"/>
<text text-anchor="middle" x="540.5" y="-255.4" font-family="Helvetica,Arial,sans-serif" font-size="12.00">ShowError [0, 100]ms</text>
</g>
<!-- p_ComposeFail&#45;&gt;t_ShowError -->
<g id="edge6" class="edge">
<title>p_ComposeFail&#45;&gt;t_ShowError</title>
<path fill="none" stroke="#333333" d="M387.26,-343.59C411.11,-330.51 469.24,-298.6 506.66,-278.07"/>
<polygon fill="#333333" stroke="#333333" points="508.61,-280.99 515.69,-273.11 505.24,-274.86 508.61,-280.99"/>
</g>
<!-- t_Retry -->
<g id="node22" class="node">
<title>t_Retry</title>
<polygon fill="#fff3cd" stroke="#856404" points="431.5,-273 321.5,-273 321.5,-244 431.5,-244 431.5,-273"/>
<text text-anchor="middle" x="376.5" y="-255.4" font-family="Helvetica,Arial,sans-serif" font-size="12.00">Retry [0, 1000]ms</text>
</g>
<!-- p_ComposeFail&#45;&gt;t_Retry -->
<g id="edge21" class="edge">
<title>p_ComposeFail&#45;&gt;t_Retry</title>
<path fill="none" stroke="#333333" d="M376.5,-337.73C376.5,-323.92 376.5,-300.68 376.5,-283.11"/>
<polygon fill="#333333" stroke="#333333" points="380,-283.03 376.5,-273.03 373,-283.03 380,-283.03"/>
</g>
<!-- p_Urgent -->
<g id="node6" class="node">
<title>p_Urgent</title>
<ellipse fill="#ffffff" stroke="#333333" stroke-width="1.5" cx="452.5" cy="-698.5" rx="12.5" ry="12.5"/>
<text text-anchor="middle" x="422" y="-714.4" font-family="Helvetica,Arial,sans-serif" font-size="12.00">Urgent</text>
</g>
<!-- p_Urgent&#45;&gt;t_ShowError -->
<g id="edge7" class="edge">
<title>p_Urgent&#45;&gt;t_ShowError</title>
<path fill="none" stroke="#333333" d="M464.13,-693.25C490.09,-682.93 550.5,-653.93 550.5,-607.5 550.5,-607.5 550.5,-607.5 550.5,-349.5 550.5,-326.87 547.34,-301.24 544.57,-283.13"/>
<polygon fill="#333333" stroke="#333333" points="548.01,-282.49 542.97,-273.17 541.1,-283.6 548.01,-282.49"/>
</g>
<!-- t_Fallback -->
<g id="node21" class="node">
<title>t_Fallback</title>
<polygon fill="#fff3cd" stroke="#856404" points="421,-621 302,-621 302,-592 421,-592 421,-621"/>
<text text-anchor="middle" x="361.5" y="-603.4" font-family="Helvetica,Arial,sans-serif" font-size="12.00">Fallback [0, 100]ms</text>
</g>
<!-- p_Urgent&#45;&gt;t_Fallback -->
<g id="edge20" class="edge">
<title>p_Urgent&#45;&gt;t_Fallback</title>
<path fill="none" stroke="#dc3545" d="M444.1,-689.19C429.91,-675.15 400.8,-646.37 381.22,-627"/>
<ellipse fill="none" stroke="#dc3545" cx="378.31" cy="-624.13" rx="4" ry="4"/>
</g>
<!-- p_Urgent&#45;&gt;t_Retry -->
<g id="edge23" class="edge">
<title>p_Urgent&#45;&gt;t_Retry</title>
<path fill="none" stroke="#dc3545" d="M457.36,-686.66C464.37,-670 476.5,-636.93 476.5,-607.5 476.5,-607.5 476.5,-607.5 476.5,-349.5 476.5,-315.84 444.81,-291.55 417.1,-276.76"/>
<ellipse fill="none" stroke="#dc3545" cx="413.36" cy="-274.84" rx="4" ry="4"/>
</g>
<!-- p_ErrorShown -->
<g id="node7" class="node">
<title>p_ErrorShown</title>
<ellipse fill="#cce5ff" stroke="#004085" stroke-width="2" cx="540.5" cy="-176.5" rx="12.5" ry="12.5"/>
<text text-anchor="middle" x="496" y="-192.4" font-family="Helvetica,Arial,sans-serif" font-size="12.00">ErrorShown</text>
</g>
<!-- p_Pending -->
<g id="node8" class="node">
<title>p_Pending</title>
<ellipse fill="#d4edda" stroke="#28a745" stroke-width="2" cx="317.5" cy="-1272.5" rx="12.5" ry="12.5"/>
<text text-anchor="middle" x="282.5" y="-1288.4" font-family="Helvetica,Arial,sans-serif" font-size="12.00">Pending</text>
</g>
<!-- t_Timeout -->
<g id="node17" class="node">
<title>t_Timeout</title>
<polygon fill="#fff3cd" stroke="#856404" points="471,-1139 326,-1139 326,-1110 471,-1110 471,-1139"/>
<text text-anchor="middle" x="398.5" y="-1121.4" font-family="Helvetica,Arial,sans-serif" font-size="12.00">Timeout [9000, 9000]ms</text>
</g>
<!-- p_Pending&#45;&gt;t_Timeout -->
<g id="edge10" class="edge">
<title>p_Pending&#45;&gt;t_Timeout</title>
<path fill="none" stroke="#6c757d" stroke-dasharray="5,2" d="M323.33,-1261C336.34,-1237.54 368.05,-1180.39 385.84,-1148.31"/>
<polygon fill="#6c757d" stroke="#6c757d" points="389.09,-1149.67 390.88,-1139.23 382.97,-1146.27 389.09,-1149.67"/>
<text text-anchor="middle" x="353" y="-1225" font-family="Helvetica,Arial,sans-serif" font-size="10.00">read</text>
</g>
<!-- t_ask -->
<g id="node23" class="node">
<title>t_ask</title>
<polygon fill="#fff3cd" stroke="#856404" points="307,-1195 214,-1195 214,-1166 307,-1166 307,-1195"/>
<text text-anchor="middle" x="260.5" y="-1177.4" font-family="Helvetica,Arial,sans-serif" font-size="12.00">ask [0, 100]ms</text>
</g>
<!-- p_Pending&#45;&gt;t_ask -->
<g id="edge24" class="edge">
<title>p_Pending&#45;&gt;t_ask</title>
<path fill="none" stroke="#333333" d="M311.18,-1261.52C302.4,-1247.66 286.28,-1222.2 274.57,-1203.71"/>
<polygon fill="#333333" stroke="#333333" points="277.38,-1201.61 269.07,-1195.03 271.46,-1205.35 277.38,-1201.61"/>
</g>
<!-- p_Drafted -->
<g id="node9" class="node">
<title>p_Drafted</title>
<ellipse fill="#ffffff" stroke="#333333" stroke-width="1.5" cx="305.5" cy="-176.5" rx="12.5" ry="12.5"/>
<text text-anchor="middle" x="273" y="-192.4" font-family="Helvetica,Arial,sans-serif" font-size="12.00">Drafted</text>
</g>
<!-- t_Filter -->
<g id="node18" class="node">
<title>t_Filter</title>
<polygon fill="#fff3cd" stroke="#856404" points="356,-109 255,-109 255,-80 356,-80 356,-109"/>
<text text-anchor="middle" x="305.5" y="-91.4" font-family="Helvetica,Arial,sans-serif" font-size="12.00">Filter [0, 500]ms</text>
</g>
<!-- p_Drafted&#45;&gt;t_Filter -->
<g id="edge11" class="edge">
<title>p_Drafted&#45;&gt;t_Filter</title>
<path fill="none" stroke="#333333" d="M305.5,-163.7C305.5,-152.13 305.5,-134.16 305.5,-119.57"/>
<polygon fill="#333333" stroke="#333333" points="309,-119.23 305.5,-109.23 302,-119.23 309,-119.23"/>
</g>
<!-- p_Answered -->
<g id="node10" class="node">
<title>p_Answered</title>
<ellipse fill="#cce5ff" stroke="#004085" stroke-width="2" cx="305.5" cy="-12.5" rx="12.5" ry="12.5"/>
<text text-anchor="middle" x="266" y="-28.4" font-family="Helvetica,Arial,sans-serif" font-size="12.00">Answered</text>
</g>
<!-- p_Found -->
<g id="node11" class="node">
<title>p_Found</title>
<ellipse fill="#ffffff" stroke="#333333" stroke-width="1.5" cx="258.5" cy="-524.5" rx="12.5" ry="12.5"/>
<text text-anchor="middle" x="229" y="-540.4" font-family="Helvetica,Arial,sans-serif" font-size="12.00">Found</text>
</g>
<!-- p_Found&#45;&gt;t_Compose -->
<g id="edge29" class="edge">
<title>p_Found&#45;&gt;t_Compose</title>
<path fill="none" stroke="#333333" d="M254.33,-512.38C249.93,-500.66 242.88,-481.85 237.26,-466.85"/>
<polygon fill="#333333" stroke="#333333" points="240.43,-465.34 233.64,-457.21 233.87,-467.8 240.43,-465.34"/>
</g>
<!-- p_SearchFail -->
<g id="node12" class="node">
<title>p_SearchFail</title>
<ellipse fill="#ffffff" stroke="#333333" stroke-width="1.5" cx="316.5" cy="-698.5" rx="12.5" ry="12.5"/>
<text text-anchor="middle" x="275" y="-714.4" font-family="Helvetica,Arial,sans-serif" font-size="12.00">SearchFail</text>
</g>
<!-- p_SearchFail&#45;&gt;t_Fallback -->
<g id="edge18" class="edge">
<title>p_SearchFail&#45;&gt;t_Fallback</title>
<path fill="none" stroke="#333333" d="M321.84,-686.82C328.75,-672.99 340.99,-648.52 350.05,-630.4"/>
<polygon fill="#333333" stroke="#333333" points="353.36,-631.61 354.7,-621.1 347.1,-628.47 353.36,-631.61"/>
</g>
<!-- p_Validated -->
<g id="node13" class="node">
<title>p_Validated</title>
<ellipse fill="#ffffff" stroke="#333333" stroke-width="1.5" cx="63.5" cy="-844.5" rx="12.5" ry="12.5"/>
<text text-anchor="middle" x="25.5" y="-860.4" font-family="Helvetica,Arial,sans-serif" font-size="12.00">Validated</text>
</g>
<!-- p_Validated&#45;&gt;t_Compose -->
<g id="edge26" class="edge">
<title>p_Validated&#45;&gt;t_Compose</title>
<path fill="none" stroke="#333333" d="M57.06,-833.56C46.45,-816.22 26.5,-779 26.5,-744.5 26.5,-744.5 26.5,-744.5 26.5,-523.5 26.5,-495.42 94.83,-472.94 152,-459.05"/>
<polygon fill="#333333" stroke="#333333" points="152.88,-462.44 161.8,-456.72 151.26,-455.63 152.88,-462.44"/>
</g>
<!-- t_Intent&#45;&gt;p_Understood -->
<g id="edge1" class="edge">
<title>t_Intent&#45;&gt;p_Understood</title>
<path fill="none" stroke="#333333" d="M227.5,-963.93C227.5,-951.76 227.5,-933.68 227.5,-919.45"/>
<polygon fill="#333333" stroke="#333333" points="231,-919.06 227.5,-909.06 224,-919.06 231,-919.06"/>
</g>
<!-- t_Topic&#45;&gt;p_Promoted -->
<g id="edge5" class="edge">
<title>t_Topic&#45;&gt;p_Promoted</title>
<path fill="none" stroke="#333333" d="M136.5,-591.93C136.5,-579.76 136.5,-561.68 136.5,-547.45"/>
<polygon fill="#333333" stroke="#333333" points="140,-547.06 136.5,-537.06 133,-547.06 140,-547.06"/>
</g>
<!-- t_Topic&#45;&gt;p_Informed -->
<g id="edge4" class="edge">
<title>t_Topic&#45;&gt;p_Informed</title>
<path fill="none" stroke="#333333" d="M146.85,-591.93C157.09,-578.49 172.83,-557.85 184.04,-543.15"/>
<polygon fill="#333333" stroke="#333333" points="187.07,-544.95 190.35,-534.88 181.5,-540.71 187.07,-544.95"/>
</g>
<!-- t_ShowError&#45;&gt;p_ErrorShown -->
<g id="edge8" class="edge">
<title>t_ShowError&#45;&gt;p_ErrorShown</title>
<path fill="none" stroke="#333333" d="M540.5,-243.93C540.5,-231.76 540.5,-213.68 540.5,-199.45"/>
<polygon fill="#333333" stroke="#333333" points="544,-199.06 540.5,-189.06 537,-199.06 544,-199.06"/>
</g>
<!-- t_Timeout&#45;&gt;p_Urgent -->
<g id="edge9" class="edge">
<title>t_Timeout&#45;&gt;p_Urgent</title>
<path fill="none" stroke="#333333" d="M405.61,-1109.78C414.48,-1091.35 428.5,-1057.35 428.5,-1026.5 428.5,-1026.5 428.5,-1026.5 428.5,-789.5 428.5,-764.9 436.98,-737.75 443.85,-719.77"/>
<polygon fill="#333333" stroke="#333333" points="447.17,-720.92 447.64,-710.34 440.67,-718.31 447.17,-720.92"/>
</g>
<!-- t_Filter&#45;&gt;p_Answered -->
<g id="edge12" class="edge">
<title>t_Filter&#45;&gt;p_Answered</title>
<path fill="none" stroke="#333333" d="M305.5,-79.93C305.5,-67.76 305.5,-49.68 305.5,-35.45"/>
<polygon fill="#333333" stroke="#333333" points="309,-35.06 305.5,-25.06 302,-35.06 309,-35.06"/>
</g>
<!-- t_Search&#45;&gt;p_Found -->
<g id="edge14" class="edge">
<title>t_Search&#45;&gt;p_Found</title>
<path fill="none" stroke="#333333" d="M251.87,-775.68C253.01,-732.48 256.53,-599.8 257.92,-547.25"/>
<polygon fill="#333333" stroke="#333333" points="261.43,-547.14 258.19,-537.05 254.43,-546.95 261.43,-547.14"/>
<text text-anchor="middle" x="268.5" y="-651" font-family="Helvetica,Arial,sans-serif" font-size="10.00">Found</text>
</g>
<!-- t_Search&#45;&gt;p_SearchFail -->
<g id="edge15" class="edge">
<title>t_Search&#45;&gt;p_SearchFail</title>
<path fill="none" stroke="#333333" d="M261.37,-775.83C272.68,-760.17 291.25,-734.46 303.67,-717.26"/>
<polygon fill="#333333" stroke="#333333" points="306.52,-719.29 309.54,-709.14 300.85,-715.2 306.52,-719.29"/>
<text text-anchor="middle" x="311" y="-741" font-family="Helvetica,Arial,sans-serif" font-size="10.00">SearchFail</text>
</g>
<!-- t_Guard&#45;&gt;p_Validated -->
<g id="edge16" class="edge">
<title>t_Guard&#45;&gt;p_Validated</title>
<path fill="none" stroke="#333333" d="M76.05,-963.87C73.62,-940.94 68.7,-894.49 65.79,-867.09"/>
<polygon fill="#333333" stroke="#333333" points="69.25,-866.53 64.72,-856.96 62.29,-867.27 69.25,-866.53"/>
</g>
<!-- t_Fallback&#45;&gt;p_Found -->
<g id="edge19" class="edge">
<title>t_Fallback&#45;&gt;p_Found</title>
<path fill="none" stroke="#333333" d="M344.03,-591.93C325.1,-577.23 295.07,-553.91 276.1,-539.17"/>
<polygon fill="#333333" stroke="#333333" points="278.05,-536.25 268,-532.88 273.75,-541.78 278.05,-536.25"/>
</g>
<!-- t_Retry&#45;&gt;p_Drafted -->
<g id="edge22" class="edge">
<title>t_Retry&#45;&gt;p_Drafted</title>
<path fill="none" stroke="#333333" d="M364.46,-243.93C352.29,-230.22 333.46,-209 320.36,-194.25"/>
<polygon fill="#333333" stroke="#333333" points="322.67,-191.57 313.41,-186.42 317.43,-196.22 322.67,-191.57"/>
</g>
<!-- t_ask&#45;&gt;p_Ready -->
<g id="edge25" class="edge">
<title>t_ask&#45;&gt;p_Ready</title>
<path fill="none" stroke="#333333" d="M256.32,-1165.82C250.66,-1147.29 240.49,-1114.02 233.87,-1092.36"/>
<polygon fill="#333333" stroke="#333333" points="237.21,-1091.32 230.94,-1082.77 230.52,-1093.36 237.21,-1091.32"/>
</g>
<!-- t_Compose&#45;&gt;p_ComposeFail -->
<g id="edge31" class="edge">
<title>t_Compose&#45;&gt;p_ComposeFail</title>
<path fill="none" stroke="#333333" d="M250.98,-427.83C280.06,-410.15 330.21,-379.65 357.49,-363.06"/>
<polygon fill="#333333" stroke="#333333" points="359.38,-366 366.11,-357.82 355.75,-360.02 359.38,-366"/>
<text text-anchor="middle" x="339.5" y="-393" font-family="Helvetica,Arial,sans-serif" font-size="10.00">ComposeFail</text>
</g>
<!-- t_Compose&#45;&gt;p_Drafted -->
<g id="edge30" class="edge">
<title>t_Compose&#45;&gt;p_Drafted</title>
<path fill="none" stroke="#333333" d="M232.53,-427.68C245.18,-384.29 284.17,-250.63 299.36,-198.57"/>
<polygon fill="#333333" stroke="#333333" points="302.78,-199.34 302.22,-188.76 296.06,-197.38 302.78,-199.34"/>
<text text-anchor="middle" x="286" y="-303" font-family="Helvetica,Arial,sans-serif" font-size="10.00">Drafted</text>
</g>
</g>
</svg>
