<?xml version="1.0" encoding="UTF-8" standalone="no"?>
<!DOCTYPE svg PUBLIC "-//W3C//DTD SVG 1.1//EN"
 "http://www.w3.org/Graphics/SVG/1.1/DTD/svg11.dtd">
<!-- Generated by graphviz version 2.42.4 (0)
 -->
<!-- Title: OrderProcessingPipeline Pages: 1 -->
<svg width="1007pt" height="1194pt"
 viewBox="0.00 0.00 1006.50 1194.00" xmlns="http://www.w3.org/2000/svg" xmlns:xlink="http://www.w3.org/1999/xlink">
<g id="graph0" class="graph" transform="scale(1 1) rotate(0) translate(4 1190)">
<title>OrderProcessingPipeline</title>
<polygon fill="white" stroke="transparent" points="-4,4 -4,-1190 1002.5,-1190 1002.5,4 -4,4"/>
<!-- p_PaymentOk -->
<g id="node1" class="node">
<title>p_PaymentOk</title>
<ellipse fill="#ffffff" stroke="#333333" stroke-width="1.5" cx="842.5" cy="-1160.5" rx="12.5" ry="12.5"/>
<text text-anchor="middle" x="799.5" y="-1176.4" font-family="Helvetica,Arial,sans-serif" font-size="12.00">PaymentOk</text>
</g>
<!-- t_Approve -->
<g id="node13" class="node">
<title>t_Approve</title>
<polygon fill="#fff3cd" stroke="#856404" points="817.5,-1093 691.5,-1093 691.5,-1064 817.5,-1064 817.5,-1093"/>
<text text-anchor="middle" x="754.5" y="-1075.4" font-family="Helvetica,Arial,sans-serif" font-size="12.00">Approve [0, 2000]ms</text>
</g>
<!-- p_PaymentOk&#45;&gt;t_Approve -->
<g id="edge1" class="edge">
<title>p_PaymentOk&#45;&gt;t_Approve</title>
<path fill="none" stroke="#333333" d="M833.74,-1151.54C820.65,-1139.64 795.57,-1116.83 777.11,-1100.06"/>
<polygon fill="#333333" stroke="#333333" points="779.42,-1097.42 769.67,-1093.29 774.71,-1102.6 779.42,-1097.42"/>
</g>
<!-- p_InStock -->
<g id="node2" class="node">
<title>p_InStock</title>
<ellipse fill="#ffffff" stroke="#333333" stroke-width="1.5" cx="308.5" cy="-96.5" rx="12.5" ry="12.5"/>
<text text-anchor="middle" x="276" y="-112.4" font-family="Helvetica,Arial,sans-serif" font-size="12.00">InStock</text>
</g>
<!-- p_InStock&#45;&gt;t_Approve -->
<g id="edge2" class="edge">
<title>p_InStock&#45;&gt;t_Approve</title>
<path fill="none" stroke="#333333" d="M320.53,-100.2C369.58,-111.47 558.59,-157.65 699.5,-230 782.11,-272.42 798.5,-321.14 798.5,-414 798.5,-997.5 798.5,-997.5 798.5,-997.5 798.5,-1019.3 785.8,-1040.77 774.05,-1055.97"/>
<polygon fill="#333333" stroke="#333333" points="771.32,-1053.77 767.7,-1063.73 776.74,-1058.2 771.32,-1053.77"/>
</g>
<!-- p_Ready -->
<g id="node3" class="node">
<title>p_Ready</title>
<ellipse fill="#ffffff" stroke="#333333" stroke-width="1.5" cx="724.5" cy="-996.5" rx="12.5" ry="12.5"/>
<text text-anchor="middle" x="694.5" y="-1012.4" font-family="Helvetica,Arial,sans-serif" font-size="12.00">Ready</text>
</g>
<!-- t_Ship -->
<g id="node15" class="node">
<title>t_Ship</title>
<polygon fill="#fff3cd" stroke="#856404" points="633,-919 546,-919 546,-890 633,-890 633,-919"/>
<text text-anchor="middle" x="589.5" y="-901.4" font-family="Helvetica,Arial,sans-serif" font-size="12.00">Ship [0, ∞]ms</text>
</g>
<!-- p_Ready&#45;&gt;t_Ship -->
<g id="edge8" class="edge">
<title>p_Ready&#45;&gt;t_Ship</title>
<path fill="none" stroke="#333333" d="M714.35,-988.74C694.26,-975.34 648.75,-945 618.59,-924.89"/>
<polygon fill="#333333" stroke="#333333" points="620.4,-921.9 610.14,-919.26 616.52,-927.72 620.4,-921.9"/>
</g>
<!-- p_Order -->
<g id="node4" class="node">
<title>p_Order</title>
<ellipse fill="#d4edda" stroke="#28a745" stroke-width="2" cx="74.5" cy="-1160.5" rx="12.5" ry="12.5"/>
<text text-anchor="middle" x="46.5" y="-1176.4" font-family="Helvetica,Arial,sans-serif" font-size="12.00">Order</text>
</g>
<!-- t_Receive -->
<g id="node14" class="node">
<title>t_Receive</title>
<polygon fill="#fff3cd" stroke="#856404" points="149,-1093 0,-1093 0,-1064 149,-1064 149,-1093"/>
<text text-anchor="middle" x="74.5" y="-1075.4" font-family="Helvetica,Arial,sans-serif" font-size="12.00">Receive [0, ∞]ms prio=10</text>
</g>
<!-- p_Order&#45;&gt;t_Receive -->
<g id="edge4" class="edge">
<title>p_Order&#45;&gt;t_Receive</title>
<path fill="none" stroke="#333333" d="M74.5,-1147.7C74.5,-1136.13 74.5,-1118.16 74.5,-1103.57"/>
<polygon fill="#333333" stroke="#333333" points="78,-1103.23 74.5,-1093.23 71,-1103.23 78,-1103.23"/>
</g>
<!-- p_Validating -->
<g id="node5" class="node">
<title>p_Validating</title>
<ellipse fill="#ffffff" stroke="#333333" stroke-width="1.5" cx="74.5" cy="-96.5" rx="12.5" ry="12.5"/>
<text text-anchor="middle" x="35" y="-112.4" font-family="Helvetica,Arial,sans-serif" font-size="12.00">Validating</text>
</g>
<!-- t_Authorize -->
<g id="node17" class="node">
<title>t_Authorize</title>
<polygon fill="#fff3cd" stroke="#856404" points="146.5,-29 2.5,-29 2.5,0 146.5,0 146.5,-29"/>
<text text-anchor="middle" x="74.5" y="-11.4" font-family="Helvetica,Arial,sans-serif" font-size="12.00">Authorize [200, 5000]ms</text>
</g>
<!-- p_Validating&#45;&gt;t_Authorize -->
<g id="edge18" class="edge">
<title>p_Validating&#45;&gt;t_Authorize</title>
<path fill="none" stroke="#333333" d="M74.5,-83.7C74.5,-72.13 74.5,-54.16 74.5,-39.57"/>
<polygon fill="#333333" stroke="#333333" points="78,-39.23 74.5,-29.23 71,-39.23 78,-39.23"/>
</g>
<!-- p_Active -->
<g id="node6" class="node">
<title>p_Active</title>
<ellipse fill="#ffffff" stroke="#333333" stroke-width="1.5" cx="369.5" cy="-996.5" rx="12.5" ry="12.5"/>
<text text-anchor="middle" x="340" y="-1012.4" font-family="Helvetica,Arial,sans-serif" font-size="12.00">Active</text>
</g>
<!-- p_Active&#45;&gt;t_Ship -->
<g id="edge11" class="edge">
<title>p_Active&#45;&gt;t_Ship</title>
<path fill="none" stroke="#6c757d" stroke-dasharray="5,2" d="M380.71,-990.91C410.96,-978.54 495.46,-943.97 547.22,-922.8"/>
<polygon fill="#6c757d" stroke="#6c757d" points="548.55,-926.03 556.48,-919.01 545.9,-919.56 548.55,-926.03"/>
<text text-anchor="middle" x="495" y="-949" font-family="Helvetica,Arial,sans-serif" font-size="10.00">read</text>
</g>
<!-- t_Monitor -->
<g id="node16" class="node">
<title>t_Monitor</title>
<polygon fill="#fff3cd" stroke="#856404" points="447,-745 292,-745 292,-716 447,-716 447,-745"/>
<text text-anchor="middle" x="369.5" y="-727.4" font-family="Helvetica,Arial,sans-serif" font-size="12.00">Monitor [10000, 10000]ms</text>
</g>
<!-- p_Active&#45;&gt;t_Monitor -->
<g id="edge17" class="edge">
<title>p_Active&#45;&gt;t_Monitor</title>
<path fill="none" stroke="#6c757d" stroke-dasharray="5,2" d="M369.5,-983.82C369.5,-943.58 369.5,-810.23 369.5,-755.38"/>
<polygon fill="#6c757d" stroke="#6c757d" points="373,-755.22 369.5,-745.22 366,-755.22 373,-755.22"/>
<text text-anchor="middle" x="379" y="-855" font-family="Helvetica,Arial,sans-serif" font-size="10.00">read</text>
</g>
<!-- p_Shipped -->
<g id="node7" class="node">
<title>p_Shipped</title>
<ellipse fill="#cce5ff" stroke="#004085" stroke-width="2" cx="502.5" cy="-812.5" rx="12.5" ry="12.5"/>
<text text-anchor="middle" x="467" y="-828.4" font-family="Helvetica,Arial,sans-serif" font-size="12.00">Shipped</text>
</g>
<!-- p_Shipped&#45;&gt;t_Monitor -->
<g id="edge13" class="edge">
<title>p_Shipped&#45;&gt;t_Monitor</title>
<path fill="none" stroke="#dc3545" d="M492.06,-805.22C472.31,-793.34 428.78,-767.15 399.28,-749.41"/>
<ellipse fill="none" stroke="#dc3545" cx="395.54" cy="-747.16" rx="4" ry="4"/>
</g>
<!-- t_Cancel -->
<g id="node20" class="node">
<title>t_Cancel</title>
<polygon fill="#fff3cd" stroke="#856404" points="484.5,-203 384.5,-203 384.5,-174 484.5,-174 484.5,-203"/>
<text text-anchor="middle" x="434.5" y="-185.4" font-family="Helvetica,Arial,sans-serif" font-size="12.00">Cancel [0, ∞]ms</text>
</g>
<!-- p_Shipped&#45;&gt;t_Cancel -->
<g id="edge31" class="edge">
<title>p_Shipped&#45;&gt;t_Cancel</title>
<path fill="none" stroke="#dc3545" d="M502.5,-799.84C502.5,-784.26 502.5,-755.81 502.5,-731.5 502.5,-731.5 502.5,-731.5 502.5,-279.5 502.5,-250.47 479.7,-224.88 460.5,-208.48"/>
<ellipse fill="none" stroke="#dc3545" cx="457.26" cy="-205.82" rx="4" ry="4"/>
</g>
<!-- p_Cancelled -->
<g id="node8" class="node">
<title>p_Cancelled</title>
<ellipse fill="#cce5ff" stroke="#004085" stroke-width="2" cx="576.5" cy="-96.5" rx="12.5" ry="12.5"/>
<text text-anchor="middle" x="536.5" y="-112.4" font-family="Helvetica,Arial,sans-serif" font-size="12.00">Cancelled</text>
</g>
<!-- p_Cancelled&#45;&gt;t_Ship -->
<g id="edge10" class="edge">
<title>p_Cancelled&#45;&gt;t_Ship</title>
<path fill="none" stroke="#dc3545" d="M584.5,-106.35C590.8,-113.77 599.36,-124.9 604.5,-136 640.77,-214.24 650.5,-238.26 650.5,-324.5 650.5,-813.5 650.5,-813.5 650.5,-813.5 650.5,-841.57 629.91,-867.41 612.65,-884.13"/>
<ellipse fill="none" stroke="#dc3545" cx="609.42" cy="-887.13" rx="4" ry="4"/>
</g>
<!-- p_Cancelled&#45;&gt;t_Monitor -->
<g id="edge15" class="edge">
<title>p_Cancelled&#45;&gt;t_Monitor</title>
<path fill="none" stroke="#dc3545" d="M576.5,-109.15C576.5,-126.31 576.5,-159.38 576.5,-187.5 576.5,-639.5 576.5,-639.5 576.5,-639.5 576.5,-695.45 512.11,-716.99 455.15,-725.09"/>
<ellipse fill="none" stroke="#dc3545" cx="451.13" cy="-725.62" rx="4" ry="4"/>
</g>
<!-- p_Overdue -->
<g id="node9" class="node">
<title>p_Overdue</title>
<ellipse fill="#ffffff" stroke="#333333" stroke-width="1.5" cx="351.5" cy="-638.5" rx="12.5" ry="12.5"/>
<text text-anchor="middle" x="316" y="-654.4" font-family="Helvetica,Arial,sans-serif" font-size="12.00">Overdue</text>
</g>
<!-- p_Overdue&#45;&gt;t_Monitor -->
<g id="edge16" class="edge">
<title>p_Overdue&#45;&gt;t_Monitor</title>
<path fill="none" stroke="#dc3545" d="M360.84,-646.94C369.33,-660.1 376.21,-687.98 376.9,-707.69"/>
<ellipse fill="none" stroke="#dc3545" cx="376.84" cy="-711.83" rx="4" ry="4"/>
</g>
<!-- t_Reject -->
<g id="node18" class="node">
<title>t_Reject</title>
<polygon fill="#fff3cd" stroke="#856404" points="299.5,-387 203.5,-387 203.5,-358 299.5,-358 299.5,-387"/>
<text text-anchor="middle" x="251.5" y="-369.4" font-family="Helvetica,Arial,sans-serif" font-size="12.00">Reject [0, ∞]ms</text>
</g>
<!-- p_Overdue&#45;&gt;t_Reject -->
<g id="edge22" class="edge">
<title>p_Overdue&#45;&gt;t_Reject</title>
<path fill="none" stroke="#333333" d="M349.03,-625.88C341.56,-591.99 317.37,-490.77 279.5,-414 276.42,-407.76 272.47,-401.4 268.52,-395.62"/>
<polygon fill="#333333" stroke="#333333" points="271.09,-393.2 262.42,-387.12 265.4,-397.28 271.09,-393.2"/>
</g>
<!-- t_RetryPayment -->
<g id="node19" class="node">
<title>t_RetryPayment</title>
<polygon fill="#fff3cd" stroke="#856404" points="287,-561 130,-561 130,-532 287,-532 287,-561"/>
<text text-anchor="middle" x="208.5" y="-543.4" font-family="Helvetica,Arial,sans-serif" font-size="12.00">RetryPayment [1000, ∞]ms</text>
</g>
<!-- p_Overdue&#45;&gt;t_RetryPayment -->
<g id="edge28" class="edge">
<title>p_Overdue&#45;&gt;t_RetryPayment</title>
<path fill="none" stroke="#dc3545" d="M341.22,-631.03C319.66,-617.46 269.1,-585.64 236.98,-565.42"/>
<ellipse fill="none" stroke="#dc3545" cx="233.41" cy="-563.18" rx="4" ry="4"/>
</g>
<!-- p_Rejected -->
<g id="node10" class="node">
<title>p_Rejected</title>
<ellipse fill="#cce5ff" stroke="#004085" stroke-width="2" cx="298.5" cy="-280.5" rx="12.5" ry="12.5"/>
<text text-anchor="middle" x="262" y="-296.4" font-family="Helvetica,Arial,sans-serif" font-size="12.00">Rejected</text>
</g>
<!-- p_Rejected&#45;&gt;t_Monitor -->
<g id="edge14" class="edge">
<title>p_Rejected&#45;&gt;t_Monitor</title>
<path fill="none" stroke="#dc3545" d="M308.7,-287.96C339.35,-308.27 428.5,-374.15 428.5,-453.5 428.5,-639.5 428.5,-639.5 428.5,-639.5 428.5,-667.29 408.58,-693.17 391.89,-709.97"/>
<ellipse fill="none" stroke="#dc3545" cx="388.81" cy="-712.96" rx="4" ry="4"/>
</g>
<!-- p_Rejected&#45;&gt;t_Cancel -->
<g id="edge32" class="edge">
<title>p_Rejected&#45;&gt;t_Cancel</title>
<path fill="none" stroke="#dc3545" d="M304.68,-269.14C311.68,-258.15 324.02,-240.9 338.5,-230 351.55,-220.18 367.33,-212.25 382.29,-206.1"/>
<ellipse fill="none" stroke="#dc3545" cx="386.31" cy="-204.51" rx="4" ry="4"/>
</g>
<!-- p_PaymentFailed -->
<g id="node11" class="node">
<title>p_PaymentFailed</title>
<ellipse fill="#ffffff" stroke="#333333" stroke-width="1.5" cx="251.5" cy="-454.5" rx="12.5" ry="12.5"/>
<text text-anchor="middle" x="199.5" y="-470.4" font-family="Helvetica,Arial,sans-serif" font-size="12.00">PaymentFailed</text>
</g>
<!-- p_PaymentFailed&#45;&gt;t_Reject -->
<g id="edge21" class="edge">
<title>p_PaymentFailed&#45;&gt;t_Reject</title>
<path fill="none" stroke="#333333" d="M251.5,-441.7C251.5,-430.13 251.5,-412.16 251.5,-397.57"/>
<polygon fill="#333333" stroke="#333333" points="255,-397.23 251.5,-387.23 248,-397.23 255,-397.23"/>
</g>
<!-- p_PaymentFailed&#45;&gt;t_RetryPayment -->
<g id="edge25" class="edge">
<title>p_PaymentFailed&#45;&gt;t_RetryPayment</title>
<path fill="none" stroke="#333333" d="M254.38,-467.04C256.38,-477.43 257.82,-492.88 252.5,-505 249.16,-512.62 243.59,-519.44 237.53,-525.21"/>
<polygon fill="#333333" stroke="#333333" points="235,-522.77 229.71,-531.95 239.57,-528.07 235,-522.77"/>
</g>
<!-- p_CancelRequest -->
<g id="node12" class="node">
<title>p_CancelRequest</title>
<ellipse fill="#f8d7da" stroke="#721c24" stroke-width="2" stroke-dasharray="5,2" cx="434.5" cy="-280.5" rx="12.5" ry="12.5"/>
<text text-anchor="middle" x="381" y="-296.4" font-family="Helvetica,Arial,sans-serif" font-size="12.00">CancelRequest</text>
</g>
<!-- p_CancelRequest&#45;&gt;t_Cancel -->
<g id="edge29" class="edge">
<title>p_CancelRequest&#45;&gt;t_Cancel</title>
<path fill="none" stroke="#333333" d="M434.5,-267.73C434.5,-253.92 434.5,-230.68 434.5,-213.11"/>
<polygon fill="#333333" stroke="#333333" points="438,-213.03 434.5,-203.03 431,-213.03 438,-213.03"/>
</g>
<!-- t_Approve&#45;&gt;p_Ready -->
<g id="edge3" class="edge">
<title>t_Approve&#45;&gt;p_Ready</title>
<path fill="none" stroke="#333333" d="M749.41,-1063.93C744.7,-1051.37 737.64,-1032.53 732.23,-1018.12"/>
<polygon fill="#333333" stroke="#333333" points="735.43,-1016.69 728.65,-1008.56 728.88,-1019.15 735.43,-1016.69"/>
</g>
<!-- t_Receive&#45;&gt;p_InStock -->
<g id="edge6" class="edge">
<title>t_Receive&#45;&gt;p_InStock</title>
<path fill="none" stroke="#333333" d="M74.5,-1063.91C74.5,-1047.99 74.5,-1020.83 74.5,-997.5 74.5,-997.5 74.5,-997.5 74.5,-324.5 74.5,-264.58 234.6,-148.48 289.94,-110.13"/>
<polygon fill="#333333" stroke="#333333" points="292.19,-112.83 298.45,-104.28 288.22,-107.07 292.19,-112.83"/>
</g>
<!-- t_Receive&#45;&gt;p_Validating -->
<g id="edge5" class="edge">
<title>t_Receive&#45;&gt;p_Validating</title>
<path fill="none" stroke="#333333" d="M49.45,-1063.93C27.98,-1050.27 0.5,-1027.01 0.5,-997.5 0.5,-997.5 0.5,-997.5 0.5,-279.5 0.5,-215.51 40.24,-147.57 61.47,-115.83"/>
<polygon fill="#333333" stroke="#333333" points="64.63,-117.42 67.4,-107.19 58.86,-113.46 64.63,-117.42"/>
</g>
<!-- t_Receive&#45;&gt;p_Active -->
<g id="edge7" class="edge">
<title>t_Receive&#45;&gt;p_Active</title>
<path fill="none" stroke="#333333" d="M124.54,-1063.93C189.81,-1046.23 301.17,-1016.03 347.88,-1003.36"/>
<polygon fill="#333333" stroke="#333333" points="348.83,-1006.73 357.56,-1000.74 347,-999.98 348.83,-1006.73"/>
</g>
<!-- t_Ship&#45;&gt;p_Shipped -->
<g id="edge9" class="edge">
<title>t_Ship&#45;&gt;p_Shipped</title>
<path fill="none" stroke="#333333" d="M576.29,-889.83C560.68,-873.69 534.75,-846.87 518.16,-829.7"/>
<polygon fill="#333333" stroke="#333333" points="520.31,-826.89 510.84,-822.13 515.28,-831.75 520.31,-826.89"/>
</g>
<!-- t_Monitor&#45;&gt;p_Overdue -->
<g id="edge12" class="edge">
<title>t_Monitor&#45;&gt;p_Overdue</title>
<path fill="none" stroke="#333333" d="M356.75,-715.83C349.6,-700.74 344.26,-676.33 344.05,-659.19"/>
<polygon fill="#333333" stroke="#333333" points="347.55,-659.34 344.68,-649.14 340.56,-658.9 347.55,-659.34"/>
</g>
<!-- t_Authorize&#45;&gt;p_PaymentOk -->
<g id="edge19" class="edge">
<title>t_Authorize&#45;&gt;p_PaymentOk</title>
<path fill="none" stroke="#333333" d="M146.6,-18.36C355.52,-27.12 946.5,-55.45 946.5,-95.5 946.5,-1079.5 946.5,-1079.5 946.5,-1079.5 946.5,-1120.66 894.69,-1143.57 864.2,-1153.49"/>
<polygon fill="#333333" stroke="#333333" points="862.98,-1150.2 854.43,-1156.47 865.02,-1156.9 862.98,-1150.2"/>
<text text-anchor="middle" x="972.5" y="-591" font-family="Helvetica,Arial,sans-serif" font-size="10.00">PaymentOk</text>
</g>
<!-- t_Authorize&#45;&gt;p_PaymentFailed -->
<g id="edge20" class="edge">
<title>t_Authorize&#45;&gt;p_PaymentFailed</title>
<path fill="none" stroke="#333333" d="M64.85,-29.23C53.36,-47.27 36.54,-80.07 43.5,-109 75.96,-243.89 104.11,-274.64 185.5,-387 199.86,-406.82 220.14,-426.32 234.42,-439.02"/>
<polygon fill="#333333" stroke="#333333" points="232.21,-441.73 242.04,-445.67 236.81,-436.46 232.21,-441.73"/>
<text text-anchor="middle" x="121.5" y="-233" font-family="Helvetica,Arial,sans-serif" font-size="10.00">PaymentFailed</text>
</g>
<!-- t_Reject&#45;&gt;p_InStock -->
<g id="edge24" class="edge">
<title>t_Reject&#45;&gt;p_InStock</title>
<path fill="none" stroke="#fd7e14" stroke-width="2" d="M253.26,-357.71C255.89,-337.81 261.2,-299.93 267.5,-268 278.14,-214.03 294.19,-151.3 302.71,-119.07"/>
<polygon fill="#fd7e14" stroke="#fd7e14" stroke-width="2" points="306.2,-119.57 305.38,-109 299.43,-117.77 306.2,-119.57"/>
<text text-anchor="middle" x="287.5" y="-233" font-family="Helvetica,Arial,sans-serif" font-size="10.00">reset</text>
</g>
<!-- t_Reject&#45;&gt;p_Rejected -->
<g id="edge23" class="edge">
<title>t_Reject&#45;&gt;p_Rejected</title>
<path fill="none" stroke="#333333" d="M258.64,-357.83C266.54,-342.7 279.33,-318.2 288.29,-301.05"/>
<polygon fill="#333333" stroke="#333333" points="291.53,-302.41 293.06,-291.92 285.33,-299.17 291.53,-302.41"/>
</g>
<!-- t_RetryPayment&#45;&gt;p_PaymentOk -->
<g id="edge26" class="edge">
<title>t_RetryPayment&#45;&gt;p_PaymentOk</title>
<path fill="none" stroke="#333333" d="M211.47,-561.15C215.02,-578.72 220.5,-610.23 220.5,-637.5 220.5,-1079.5 220.5,-1079.5 220.5,-1079.5 220.5,-1141.14 707.29,-1156.33 819.58,-1159.01"/>
<polygon fill="#333333" stroke="#333333" points="819.72,-1162.52 829.79,-1159.25 819.88,-1155.52 819.72,-1162.52"/>
<text text-anchor="middle" x="246.5" y="-855" font-family="Helvetica,Arial,sans-serif" font-size="10.00">PaymentOk</text>
</g>
<!-- t_RetryPayment&#45;&gt;p_PaymentFailed -->
<g id="edge27" class="edge">
<title>t_RetryPayment&#45;&gt;p_PaymentFailed</title>
<path fill="none" stroke="#333333" d="M191.41,-531.93C180.49,-521.54 169.7,-506.85 177.5,-494 188.7,-475.55 211.95,-465.53 229.41,-460.38"/>
<polygon fill="#333333" stroke="#333333" points="230.59,-463.69 239.38,-457.77 228.82,-456.92 230.59,-463.69"/>
<text text-anchor="middle" x="210.5" y="-497" font-family="Helvetica,Arial,sans-serif" font-size="10.00">PaymentFailed</text>
</g>
<!-- t_Cancel&#45;&gt;p_PaymentOk -->
<g id="edge36" class="edge">
<title>t_Cancel&#45;&gt;p_PaymentOk</title>
<path fill="none" stroke="#fd7e14" stroke-width="2" d="M484.69,-190.25C539.4,-192.63 628.6,-201.12 699.5,-230 803.45,-272.35 872.5,-301.75 872.5,-414 872.5,-1079.5 872.5,-1079.5 872.5,-1079.5 872.5,-1101.61 862.33,-1125.1 853.83,-1140.86"/>
<polygon fill="#fd7e14" stroke="#fd7e14" stroke-width="2" points="850.76,-1139.17 848.86,-1149.59 856.85,-1142.63 850.76,-1139.17"/>
<text text-anchor="middle" x="883.5" y="-681" font-family="Helvetica,Arial,sans-serif" font-size="10.00">reset</text>
</g>
<!-- t_Cancel&#45;&gt;p_InStock -->
<g id="edge35" class="edge">
<title>t_Cancel&#45;&gt;p_InStock</title>
<path fill="none" stroke="#fd7e14" stroke-width="2" d="M415.36,-173.83C391.3,-156.64 350.27,-127.34 326.67,-110.48"/>
<polygon fill="#fd7e14" stroke="#fd7e14" stroke-width="2" points="328.44,-107.44 318.27,-104.48 324.38,-113.14 328.44,-107.44"/>
<text text-anchor="middle" x="385.5" y="-139" font-family="Helvetica,Arial,sans-serif" font-size="10.00">reset</text>
</g>
<!-- t_Cancel&#45;&gt;p_Ready -->
<g id="edge37" class="edge">
<title>t_Cancel&#45;&gt;p_Ready</title>
<path fill="none" stroke="#fd7e14" stroke-width="2" d="M484.68,-194.65C567.68,-204.57 724.5,-229.88 724.5,-279.5 724.5,-905.5 724.5,-905.5 724.5,-905.5 724.5,-928.79 724.5,-955.47 724.5,-973.7"/>
<polygon fill="#fd7e14" stroke="#fd7e14" stroke-width="2" points="721,-973.85 724.5,-983.85 728,-973.85 721,-973.85"/>
<text text-anchor="middle" x="735.5" y="-591" font-family="Helvetica,Arial,sans-serif" font-size="10.00">reset</text>
</g>
<!-- t_Cancel&#45;&gt;p_Validating -->
<g id="edge33" class="edge">
<title>t_Cancel&#45;&gt;p_Validating</title>
<path fill="none" stroke="#fd7e14" stroke-width="2" d="M384.44,-174.99C304.93,-155.11 152.98,-117.12 96.42,-102.98"/>
<polygon fill="#fd7e14" stroke="#fd7e14" stroke-width="2" points="96.98,-99.51 86.43,-100.48 95.29,-106.3 96.98,-99.51"/>
<text text-anchor="middle" x="276.5" y="-139" font-family="Helvetica,Arial,sans-serif" font-size="10.00">reset</text>
</g>
<!-- t_Cancel&#45;&gt;p_Cancelled -->
<g id="edge30" class="edge">
<title>t_Cancel&#45;&gt;p_Cancelled</title>
<path fill="none" stroke="#333333" d="M456.07,-173.83C483.71,-156.31 531.19,-126.22 557.52,-109.53"/>
<polygon fill="#333333" stroke="#333333" points="559.61,-112.35 566.19,-104.04 555.87,-106.43 559.61,-112.35"/>
</g>
<!-- t_Cancel&#45;&gt;p_PaymentFailed -->
<g id="edge34" class="edge">
<title>t_Cancel&#45;&gt;p_PaymentFailed</title>
<path fill="none" stroke="#fd7e14" stroke-width="2" d="M427.9,-203.16C411.56,-236.31 366.99,-323 317.5,-387 302.53,-406.36 282.36,-425.94 268.27,-438.79"/>
<polygon fill="#fd7e14" stroke="#fd7e14" stroke-width="2" points="265.87,-436.24 260.76,-445.52 270.54,-441.45 265.87,-436.24"/>
<text text-anchor="middle" x="373.5" y="-323" font-family="Helvetica,Arial,sans-serif" font-size="10.00">reset</text>
</g>
</g>
</svg>
